# xmcd
#
# Track frame offsets:
#	150
#	14931
#	28888
#	44696
#	61081
#	74896
#	90946
#	108597
#	122244
#	140491
#	158321
#	170811
#	187877
#	204337
#
# Disc length: 2932 seconds
#
# Revision: 0
# Processed by: cddbd v1.5.2PL0 Copyright (c) Steve Scherf et al.
# Submitted via: audiograbber 1.83.01
#
DISCID=cb0b720e
DTITLE=01 - Mr Music Country 2012-12
DYEAR=2012
DGENRE=Country
TTITLE0=Mark Wills - 19 somethin'
TTITLE1=Ashton Shepherd - Takin' off this pain
TTITLE2=Josh Turner - Your man
TTITLE3=Kathy Mattea - Nobody's gonna rain on our parade
TTITLE4=The Mavericks - Someone should tell her
TTITLE5=Gary Allan - Life ain't always beautiful
TTITLE6=Lionel Cartwright - Leap of faith
TTITLE7=Jamie O'Neal - When I think about angels
TTITLE8=David Nail - Red light
TTITLE9=Sugarland - Joey
TTITLE10=Steve Earle - Nowhere road
TTITLE11=Danni Leigh - 29 nights
TTITLE12=The Oak Ridge Boys - Elvira
TTITLE13=Laura Bell Bundy - Giddy on up
EXTD=
EXTT0=
EXTT1=
EXTT2=
EXTT3=
EXTT4=
EXTT5=
EXTT6=
EXTT7=
EXTT8=
EXTT9=
EXTT10=
EXTT11=
EXTT12=
EXTT13=
PLAYORDER=
